{"title":"Miranda Lambert - Mama's Broken Heart [Music Video] 1080p [Sbyky","uid":8472387,"size":88140069,"categoryP":"video","categoryS":"music_videos","magnet":"?xt=urn:btih:8af1eb83802fd273c99d85d2707c6bbb6e8d817d&amp;dn=Miranda+Lambert+-+Mama%27s+Broken+Heart+%5BMusic+Video%5D+1080p+%5BSbyky&amp;tr=udp%3A%2F%2Ftracker.openbittorrent.com%3A80&amp;tr=udp%3A%2F%2Fopen.demonii.com%3A1337&amp;tr=udp%3A%2F%2Ftracker.coppersurfer.tk%3A6969&amp;tr=udp%3A%2F%2Fexodus.desync.com%3A6969","seeders":0,"leechers":0,"uploader":"Sbyky","files":-1,"time":1368518037,"description":"[IMG]http://www.shotpix.com/images/89057482887641330301.jpg[/IMG]\n\nGeneral\nComplete name                            : Miranda Lambert - Mama's Broken Heart [Music Video] 1080p [Sbyky].mp4\nFormat                                   : MPEG-4\nFormat profile                           : Base Media / Version 2\nCodec ID                                 : mp42\nFile size                                : 84.1 MiB\nDuration                                 : 3mn 1s\nOverall bit rate mode                    : Variable\nOverall bit rate                         : 3 891 Kbps\nEncoded date                             : UTC 2013-04-08 04:03:07\nTagged date                              : UTC 2013-04-08 04:03:07\n\nVideo\nID                                       : 1\nFormat                                   : AVC\nFormat/Info                              : Advanced Video Codec\nFormat profile                           : &lt;a class=&quot;__cf_email__&quot; href=&quot;/cdn-cgi/l/email-protection&quot; data-cfemail=&quot;f8b0919f90b8b4ccd6c8&quot;&gt;[email&amp;#160;protected]&lt;/a&gt;&lt;script data-cfhash='f9e31' type=&quot;text/javascript&quot;&gt;\n/* &lt;![CDATA[ */!function(){try{var t=&quot;currentScript&quot;in document?document.currentScript:function(){for(var t=document.getElementsByTagName(&quot;script&quot;),e=t.length;e--;)if(t[e].getAttribute(&quot;data-cfhash&quot;))return t[e]}();if(t&amp;&amp;t.previousSibling){var e,r,n,i,c=t.previousSibling,a=c.getAttribute(&quot;data-cfemail&quot;);if(a){for(e=&quot;&quot;,r=parseInt(a.substr(0,2),16),n=2;a.length-n;n+=2)i=parseInt(a.substr(n,2),16)^r,e+=String.fromCharCode(i);e=document.createTextNode(e),c.parentNode.replaceChild(e,c)}t.parentNode.removeChild(t);}}catch(u){}}()/* ]]&gt; */&lt;/script&gt;\nFormat settings, CABAC                   : Yes\nFormat settings, ReFrames                : 1 frame\nCodec ID                                 : avc1\nCodec ID/Info                            : Advanced Video Coding\nDuration                                 : 3mn 1s\nBit rate                                 : 3 696 Kbps\nMaximum bit rate                         : 6 998 Kbps\nWidth                                    : 1 920 pixels\nHeight                                   : 1 080 pixels\nDisplay aspect ratio                     : 16:9\nFrame rate mode                          : Constant\nFrame rate                               : 29.970 fps\nColor space                              : YUV\nChroma subsampling                       : 4:2:0\nBit depth                                : 8 bits\nScan type                                : Progressive\nBits/(Pixel*Frame)                       : 0.059\nStream size                              : 79.9 MiB (95%)\nTagged date                              : UTC 2013-04-08 04:03:10\n\nAudio\nID                                       : 2\nFormat                                   : AAC\nFormat/Info                              : Advanced Audio Codec\nFormat profile                           : LC\nCodec ID                                 : 40\nDuration                                 : 3mn 1s\nBit rate mode                            : Variable\nBit rate                                 : 192 Kbps\nMaximum bit rate                         : 201 Kbps\nChannel(s)                               : 2 channels\nChannel positions                        : Front: L R\nSampling rate                            : 44.1 KHz\nCompression mode                         : Lossy\nStream size                              : 4.15 MiB (5%)\nTitle                                    : IsoMedia File Produced by Google, 5-11-2011\nEncoded date                             : UTC 2013-04-08 04:03:09\nTagged date                              : UTC 2013-04-08 04:03:10\n\nShared By Sbyky\n[IMG]http://www.shotpix.com/images/76014917432015785852.gif[/IMG]\n[IMG]http://www.shotpix.com/images/54100788659511547411.gif[/IMG]","torrent":{"xt":"urn:btih:8af1eb83802fd273c99d85d2707c6bbb6e8d817d","amp;dn":"Miranda+Lambert+-+Mama%27s+Broken+Heart+%5BMusic+Video%5D+1080p+%5BSbyky","amp;tr":["udp%3A%2F%2Ftracker.openbittorrent.com%3A80","udp%3A%2F%2Fopen.demonii.com%3A1337","udp%3A%2F%2Ftracker.coppersurfer.tk%3A6969","udp%3A%2F%2Fexodus.desync.com%3A6969"],"infoHash":"8af1eb83802fd273c99d85d2707c6bbb6e8d817d","infoHashBuffer":{"type":"Buffer","data":[138,241,235,131,128,47,210,115,201,157,133,210,112,124,107,187,110,141,129,125]},"announce":[],"urlList":[]}}